<?xml version="1.0" encoding="UTF-8" standalone="no"?><!DOCTYPE svg PUBLIC "-//W3C//DTD SVG 1.1//EN" "http://www.w3.org/Graphics/SVG/1.1/DTD/svg11.dtd"><svg width="100%" height="100%" viewBox="0 0 3067 1358" version="1.1" xmlns="http://www.w3.org/2000/svg" xmlns:xlink="http://www.w3.org/1999/xlink" xml:space="preserve" xmlns:serif="http://www.serif.com/" style="fill-rule:evenodd;clip-rule:evenodd;stroke-miterlimit:10;"><g id="BioDWH2-logo" serif:id="BioDWH2 logo"><path id="path55" d="M1217.92,1080.52c124.919,-0 187.37,-62.451 187.37,-187.37" style="fill:none;fill-rule:nonzero;stroke:#789339;stroke-width:62.46px;"/><path id="path59" d="M905.632,768.229c-0,-124.918 62.467,-187.37 187.37,-187.37" style="fill:none;fill-rule:nonzero;stroke:#789339;stroke-width:62.46px;"/><path id="path63" d="M687.028,1018.07l0,-374.756" style="fill:none;fill-rule:nonzero;stroke:#789339;stroke-width:62.46px;"/><path id="path67" d="M93.685,643.311l-0,-249.821" style="fill:none;fill-rule:nonzero;stroke:#789339;stroke-width:62.46px;"/><path id="path69" d="M93.685,768.229l-0,249.838" style="fill:none;fill-rule:nonzero;stroke:#789339;stroke-width:62.46px;"/><path id="path73" d="M405.973,768.229c41.635,0 62.452,52.051 62.452,156.136c-0,104.102 -104.086,156.153 -312.289,156.153" style="fill:none;fill-rule:nonzero;stroke:#789339;stroke-width:62.46px;"/><path id="path75" d="M405.973,643.311c41.635,-0 62.452,-52.051 62.452,-156.136c-0,-104.102 -104.086,-156.153 -312.289,-156.153" style="fill:none;fill-rule:nonzero;stroke:#789339;stroke-width:62.46px;"/><path id="path79" d="M343.522,705.778l-187.386,0" style="fill:none;fill-rule:nonzero;stroke:#789339;stroke-width:62.46px;"/><path id="path87" d="M1093,1080.52c-124.903,-0 -187.37,-62.451 -187.37,-187.37" style="fill:none;fill-rule:nonzero;stroke:#789339;stroke-width:62.46px;"/><path id="path91" d="M1217.92,580.859c124.919,0 187.37,62.452 187.37,187.37" style="fill:none;fill-rule:nonzero;stroke:#789339;stroke-width:62.46px;"/><path id="path95" d="M3025.62,1132.44l-561.018,0l-0,-101.074l219.677,-223.063c39.649,-39.99 72.966,-75.586 99.984,-106.755c26.188,-30.241 46.078,-59.912 59.668,-88.981c13.167,-28.206 19.743,-59.31 19.743,-93.294c-0,-40.137 -11.475,-70.443 -34.457,-90.918c-23.567,-20.996 -55.078,-31.511 -94.531,-31.511c-35.954,0 -67.61,6.088 -94.97,18.262c-28.353,12.598 -57.504,30.534 -87.484,53.809l-13.721,10.644l-70.28,-88.411l13.021,-11.003c22.103,-18.685 46.191,-35.237 72.266,-49.707c26.269,-14.567 54.427,-26.074 84.472,-34.489c30.274,-8.48 62.517,-12.728 96.696,-12.728c52.067,0 97.233,9.18 135.498,27.523c38.965,18.701 69.141,45.427 90.528,80.192c21.321,34.668 31.966,75.619 31.966,122.836c-0,45.035 -8.952,86.914 -26.872,125.667c-17.497,37.874 -41.96,75.26 -73.372,112.158c-30.713,36.084 -66.569,74.251 -107.569,114.502l-174.463,173.926l-12.402,-12.435l17.562,-0l-0,3.841l-17.562,0l0,-17.562l427.62,0l0,118.571Zm-17.561,-35.14l-0,17.562l-17.578,0l-0,-83.431l17.578,0l-0,17.562l-427.637,-0l-0,-28.695l179.834,-179.264c40.234,-39.518 75.391,-76.921 105.42,-112.207c29.329,-34.457 52.083,-69.173 68.245,-104.118c15.755,-34.082 23.633,-71.061 23.633,-110.937c0,-40.593 -8.919,-75.407 -26.774,-104.428c-17.773,-28.906 -43.034,-51.204 -75.798,-66.91c-33.463,-16.065 -73.567,-24.089 -120.296,-24.089c-30.973,0 -60.042,3.809 -87.207,11.426c-27.409,7.682 -53.06,18.148 -76.92,31.396c-24.073,13.347 -46.273,28.614 -66.634,45.817l-11.329,-13.427l13.754,-10.922l48.86,61.475l-13.753,10.938l-10.775,-13.884c32.227,-25.032 63.819,-44.417 94.759,-58.17c31.918,-14.177 68.327,-21.273 109.245,-21.273c48.373,-0 87.679,13.46 117.904,40.413c30.81,27.458 46.224,66.504 46.224,117.139c-0,39.193 -7.682,75.244 -23.063,108.154c-14.958,32.048 -36.605,64.404 -64.942,97.119c-27.522,31.771 -61.344,67.904 -101.497,108.415l-214.632,217.936l-12.517,-12.337l17.562,-0l0,76.302l-17.562,0l0,-17.562l525.896,0Zm-0,17.562l-525.896,0l0,-76.302l214.633,-217.92c39.892,-40.267 73.47,-76.123 100.732,-107.601c27.262,-31.461 48.031,-62.484 62.305,-93.05c14.274,-30.55 21.419,-64.128 21.419,-100.716c0,-45.394 -13.46,-80.062 -40.348,-104.037c-26.905,-23.958 -62.305,-35.953 -106.218,-35.953c-38.427,-0 -72.461,6.591 -102.116,19.759c-29.638,13.183 -60.009,31.852 -91.113,56.006l-48.861,-61.491c21.224,-17.937 44.369,-33.854 69.434,-47.754c25.081,-13.916 51.969,-24.886 80.697,-32.943c28.727,-8.04 59.375,-12.077 91.959,-12.077c49.398,0 92.041,8.61 127.897,25.798c35.873,17.204 63.591,41.732 83.171,73.567c19.58,31.836 29.362,69.711 29.362,113.624c-0,42.464 -8.415,81.884 -25.244,118.294c-16.846,36.426 -40.446,72.461 -70.817,108.154c-30.371,35.677 -65.869,73.47 -106.494,113.346l-174.561,174.024l0,3.841l410.059,0l-0,83.431Z" style="fill:#656565;fill-rule:nonzero;"/><path id="path97" d="M1592.68,908.757c-0,-25.863 167.789,-46.843 374.739,-46.843c99.398,0 194.711,4.932 264.974,13.704c70.297,8.806 109.766,20.704 109.766,33.139l-0,281.054c-0,25.863 -167.79,46.843 -374.74,46.843c-206.95,-0 -374.739,-20.98 -374.739,-46.843l-0,-281.054Z" style="fill:#d9e7fb;fill-rule:nonzero;"/><path id="path99" d="M1592.68,908.757c0,-25.863 167.79,-46.843 374.74,-46.843c99.398,0 194.71,4.932 264.974,13.705c70.296,8.805 109.765,20.703 109.765,33.138l0,281.054c0,25.863 -167.789,46.843 -374.739,46.843c-206.95,-0 -374.74,-20.98 -374.74,-46.843l0,-281.054Z" style="fill:none;fill-rule:nonzero;stroke:#6c8ebf;stroke-width:37.47px;"/><path id="path103" d="M2342.16,908.757c0,25.862 -167.789,46.842 -374.739,46.842c-206.95,0 -374.74,-20.98 -374.74,-46.842" style="fill:none;fill-rule:nonzero;stroke:#6c8ebf;stroke-width:37.47px;"/><path id="path107" d="M2182.26,1207.19l-39.193,0l0,-107.503l4.883,-0l0,4.883l-111.93,-0l-0,-4.883l4.883,-0l-0,107.503l-39.03,0l-0,-231.787l39.03,-0l-0,100.342l-4.883,-0l-0,-4.883l111.93,-0l0,4.883l-4.883,-0l0,-100.342l39.193,-0l0,231.787Zm-4.883,-9.766l0,4.883l-4.883,0l0,-222.021l4.883,-0l0,4.883l-29.427,-0l0,-4.883l4.883,-0l0,100.342l-121.68,-0l0,-100.342l4.867,-0l-0,4.883l-29.264,-0l-0,-4.883l4.866,-0l0,222.021l-4.866,0l-0,-4.883l29.264,0l-0,4.883l-4.867,0l0,-107.503l121.68,-0l0,107.503l-4.883,0l0,-4.883l29.427,0Zm0,4.883l-29.427,0l0,-102.62l-111.93,-0l-0,102.62l-29.264,0l-0,-222.021l29.264,-0l-0,95.459l111.93,-0l0,-95.459l29.427,-0l0,222.021Z" style="fill-rule:nonzero;"/><path id="path109" d="M1592.68,565.234c-0,-25.846 167.789,-46.842 374.739,-46.842c99.398,-0 194.711,4.948 264.974,13.721c70.297,8.805 109.766,20.703 109.766,33.121l-0,281.071c-0,25.847 -167.79,46.843 -374.74,46.843c-206.95,-0 -374.739,-20.996 -374.739,-46.843l-0,-281.071Z" style="fill:#f7cdcb;fill-rule:nonzero;"/><path id="path111" d="M1592.68,565.235c0,-25.847 167.79,-46.843 374.74,-46.843c99.398,0 194.71,4.948 264.974,13.721c70.296,8.805 109.765,20.703 109.765,33.122l0,281.071c0,25.846 -167.789,46.842 -374.739,46.842c-206.95,0 -374.74,-20.996 -374.74,-46.842l0,-281.071Z" style="fill:none;fill-rule:nonzero;stroke:#b85450;stroke-width:37.47px;"/><path id="path115" d="M2342.16,565.235c0,25.862 -167.789,46.842 -374.739,46.842c-206.95,-0 -374.74,-20.98 -374.74,-46.842" style="fill:none;fill-rule:nonzero;stroke:#b8534f;stroke-width:37.47px;"/><path id="path117" d="M1907.31,794.336l4.281,29.281l-4.834,0.699l-4.753,-1.123l6.283,-26.481l44.954,-158.577l32.096,-0l43.864,158.61l6.136,26.953l-4.769,1.09l-4.817,-0.765l4.752,-30.045l35.368,-155.843l39.518,-0l-56.185,231.787l-34.212,-0l-46.793,-165.511l-3.549,-17.09l4.786,-0.993l4.768,0.993l-3.548,17.106l-48.502,165.495l-34.18,-0l-56.038,-231.787l39.355,-0l36.003,156.006l0.016,0.195Zm-9.652,1.416l4.834,-0.7l-4.752,1.091l-35.075,-152.019l4.752,-1.106l0,4.882l-29.28,0l-0,-4.882l4.752,-1.14l53.662,222.005l-4.736,1.156l0,-4.883l26.677,0l-0,4.883l-4.672,-1.367l47.412,-161.8l4.688,1.383l-4.769,-0.993l3.499,-16.927l9.554,0l3.516,16.927l-4.785,0.993l4.704,-1.334l45.735,161.783l-4.687,1.335l-0,-4.883l26.676,0l0,4.883l-4.736,-1.156l53.825,-222.005l4.736,1.14l0,4.882l-29.427,0l0,-4.882l4.753,1.09l-34.457,151.872l-4.752,-1.091l4.817,0.765l-4.736,29.883l-9.57,0.326l-6.104,-26.84l4.769,-1.074l-4.704,1.302l-42.854,-154.931l4.703,-1.302l0,4.882l-24.707,0l0,-4.882l4.704,1.334l-43.913,154.916l-4.703,-1.319l4.752,1.123l-6.25,26.384l-9.586,-0.423l-4.265,-29.281Zm4.834,-0.7l4.265,29.264l6.25,-26.367l43.912,-154.931l24.707,-0l42.855,154.931l6.087,26.839l4.737,-29.899l34.456,-151.871l29.427,-0l-53.825,222.021l-26.676,0l-45.752,-161.784l-3.499,-16.927l-3.516,16.927l-47.428,161.784l-26.677,0l-53.678,-222.021l29.28,-0l35.075,152.034Z" style="fill-rule:nonzero;"/><path id="path119" d="M1592.68,221.729c0,-25.863 167.79,-46.843 374.74,-46.843c99.398,0 194.71,4.932 264.974,13.705c70.296,8.805 109.765,20.703 109.765,33.138l0,281.054c0,25.863 -167.789,46.843 -374.739,46.843c-206.95,-0 -374.74,-20.98 -374.74,-46.843l0,-281.054Z" style="fill:#d5e7d4;fill-rule:nonzero;stroke:#81b365;stroke-width:37.47px;"/><path id="path121" d="M2342.16,221.729c0,25.846 -167.789,46.842 -374.739,46.842c-206.95,0 -374.74,-20.996 -374.74,-46.842" style="fill:none;fill-rule:nonzero;stroke:#81b365;stroke-width:37.47px;"/><path id="path123" d="M1760.97,520.15l0,-231.771l67.546,-0c20.182,-0 38.069,4.492 53.678,13.46c15.674,9.017 27.767,21.826 36.279,38.444c8.448,16.455 12.712,35.27 12.826,56.494l-0,14.193c-0,21.729 -4.232,40.82 -12.663,57.275c-8.529,16.635 -20.719,29.411 -36.572,38.314c-15.723,8.854 -33.952,13.379 -54.72,13.591l-66.374,-0Zm9.749,-4.883l-4.866,-0l-0,-4.867l61.393,0c19.092,-0.195 35.775,-4.313 50.033,-12.337c14.144,-7.959 25.032,-19.385 32.666,-34.261c7.731,-15.072 11.588,-32.666 11.588,-52.832l0,-14.144c-0.097,-19.661 -4.004,-37.028 -11.735,-52.083c-7.65,-14.909 -18.473,-26.384 -32.471,-34.44c-14.095,-8.106 -30.371,-12.158 -48.811,-12.158l-62.663,-0l-0,-4.883l4.866,-0l0,222.005Zm29.281,-198.063l0,174.137l-4.883,0l0,-4.883l30.811,0c21.11,0 37.467,-6.478 49.039,-19.433c11.735,-13.119 17.595,-32.032 17.595,-56.739l-0,-12.972c-0,-24.039 -5.534,-42.594 -16.602,-55.68c-10.888,-12.842 -26.465,-19.368 -46.728,-19.564l-34.115,0l0,-4.866l4.883,-0Zm-9.749,-4.883l39.078,-0c23.243,0.212 41.26,7.894 54.069,23.014c12.614,14.909 18.929,35.563 18.929,61.979l0,12.972c0,27.198 -6.705,48.275 -20.084,63.233c-13.526,15.137 -32.292,22.689 -56.315,22.689l-35.677,-0l-0,-183.887Zm-24.398,202.946l-0,-222.005l62.663,-0c19.319,-0 36.393,4.264 51.237,12.809c14.843,8.529 26.302,20.687 34.391,36.442c8.073,15.755 12.174,33.854 12.272,54.281l0,14.176c0,20.947 -4.036,39.29 -12.126,55.046c-8.089,15.771 -19.612,27.864 -34.619,36.295c-14.99,8.447 -32.454,12.761 -52.376,12.956l-61.442,-0Zm29.264,-198.063l0,174.137l30.811,0c22.558,0 40.12,-7.031 52.685,-21.061c12.549,-14.046 18.832,-34.033 18.832,-59.994l-0,-12.972c-0,-25.227 -5.925,-44.84 -17.774,-58.821c-11.832,-13.998 -28.629,-21.094 -50.39,-21.289l-34.164,-0Z" style="fill-rule:nonzero;"/><path id="path125" d="M156.136,331.022c0,4.102 -0.391,8.171 -1.188,12.191c-0.798,4.02 -1.986,7.926 -3.565,11.719c-1.562,3.776 -3.483,7.389 -5.761,10.791c-2.279,3.418 -4.867,6.559 -7.764,9.472c-2.913,2.898 -6.055,5.485 -9.473,7.764c-3.401,2.279 -7.015,4.199 -10.791,5.762c-3.792,1.579 -7.698,2.767 -11.718,3.564c-4.021,0.798 -8.09,1.205 -12.191,1.205c-4.102,-0 -8.154,-0.407 -12.191,-1.205c-4.02,-0.797 -7.926,-1.985 -11.702,-3.564c-3.793,-1.563 -7.39,-3.483 -10.808,-5.762c-3.401,-2.279 -6.559,-4.866 -9.456,-7.764c-2.913,-2.913 -5.501,-6.054 -7.78,-9.472c-2.279,-3.402 -4.199,-7.015 -5.762,-10.791c-1.578,-3.793 -2.75,-7.699 -3.564,-11.719c-0.798,-4.02 -1.188,-8.089 -1.188,-12.191c-0,-4.101 0.39,-8.154 1.188,-12.174c0.814,-4.037 1.986,-7.943 3.564,-11.719c1.563,-3.792 3.483,-7.389 5.762,-10.807c2.279,-3.402 4.867,-6.56 7.78,-9.457c2.897,-2.897 6.055,-5.501 9.456,-7.763c3.418,-2.279 7.015,-4.216 10.808,-5.778c3.776,-1.579 7.682,-2.751 11.702,-3.549c4.037,-0.813 8.089,-1.204 12.191,-1.204c4.101,0 8.17,0.391 12.191,1.204c4.02,0.798 7.926,1.97 11.718,3.549c3.776,1.562 7.39,3.499 10.791,5.778c3.418,2.262 6.56,4.866 9.473,7.763c2.897,2.897 5.485,6.055 7.764,9.457c2.278,3.418 4.199,7.015 5.761,10.807c1.579,3.776 2.767,7.682 3.565,11.719c0.797,4.02 1.188,8.073 1.188,12.174Z" style="fill:#fefefe;fill-rule:nonzero;stroke:#9dc454;stroke-width:62.46px;stroke-miterlimit:4;"/><path id="path127" d="M156.136,705.778c0,4.102 -0.391,8.154 -1.188,12.175c-0.798,4.02 -1.986,7.926 -3.565,11.718c-1.562,3.793 -3.483,7.39 -5.761,10.791c-2.279,3.418 -4.867,6.576 -7.764,9.473c-2.913,2.897 -6.055,5.485 -9.473,7.764c-3.401,2.278 -7.015,4.199 -10.791,5.778c-3.792,1.562 -7.698,2.75 -11.718,3.548c-4.021,0.797 -8.09,1.204 -12.191,1.204c-4.102,0 -8.154,-0.407 -12.191,-1.204c-4.02,-0.798 -7.926,-1.986 -11.702,-3.548c-3.793,-1.579 -7.39,-3.5 -10.808,-5.778c-3.401,-2.279 -6.559,-4.867 -9.456,-7.764c-2.913,-2.897 -5.501,-6.055 -7.78,-9.473c-2.279,-3.401 -4.199,-6.998 -5.762,-10.791c-1.578,-3.792 -2.75,-7.698 -3.564,-11.718c-0.798,-4.021 -1.188,-8.073 -1.188,-12.175c-0,-4.101 0.39,-8.17 1.188,-12.191c0.814,-4.02 1.986,-7.926 3.564,-11.718c1.563,-3.793 3.483,-7.39 5.762,-10.791c2.279,-3.418 4.867,-6.576 7.78,-9.473c2.897,-2.897 6.055,-5.485 9.456,-7.764c3.418,-2.278 7.015,-4.199 10.808,-5.778c3.776,-1.562 7.682,-2.75 11.702,-3.548c4.037,-0.797 8.089,-1.204 12.191,-1.204c4.101,-0 8.17,0.407 12.191,1.204c4.02,0.798 7.926,1.986 11.718,3.548c3.776,1.579 7.39,3.5 10.791,5.778c3.418,2.279 6.56,4.867 9.473,7.764c2.897,2.897 5.485,6.055 7.764,9.473c2.278,3.401 4.199,6.998 5.761,10.791c1.579,3.792 2.767,7.698 3.565,11.718c0.797,4.021 1.188,8.09 1.188,12.191Z" style="fill:#fefefe;fill-rule:nonzero;stroke:#9dc454;stroke-width:62.46px;stroke-miterlimit:4;"/><path id="path135" d="M468.425,705.778c-0,4.102 -0.391,8.154 -1.189,12.175c-0.797,4.02 -1.985,7.926 -3.564,11.718c-1.563,3.793 -3.483,7.39 -5.762,10.791c-2.278,3.418 -4.866,6.576 -7.78,9.473c-2.897,2.897 -6.054,5.485 -9.456,7.764c-3.418,2.278 -7.015,4.199 -10.791,5.778c-3.792,1.562 -7.699,2.75 -11.719,3.548c-4.02,0.797 -8.089,1.204 -12.191,1.204c-4.101,0 -8.154,-0.407 -12.19,-1.204c-4.021,-0.798 -7.927,-1.986 -11.703,-3.548c-3.792,-1.579 -7.389,-3.5 -10.807,-5.778c-3.402,-2.279 -6.559,-4.867 -9.457,-7.764c-2.913,-2.897 -5.501,-6.055 -7.779,-9.473c-2.279,-3.401 -4.2,-6.998 -5.762,-10.791c-1.579,-3.792 -2.751,-7.698 -3.565,-11.718c-0.797,-4.021 -1.188,-8.073 -1.188,-12.175c0,-4.101 0.391,-8.17 1.188,-12.191c0.814,-4.02 1.986,-7.926 3.565,-11.718c1.562,-3.793 3.483,-7.39 5.762,-10.791c2.278,-3.418 4.866,-6.576 7.779,-9.473c2.898,-2.897 6.055,-5.485 9.457,-7.764c3.418,-2.278 7.015,-4.199 10.807,-5.778c3.776,-1.562 7.682,-2.75 11.703,-3.548c4.036,-0.797 8.089,-1.204 12.19,-1.204c4.102,-0 8.171,0.407 12.191,1.204c4.02,0.798 7.927,1.986 11.719,3.548c3.776,1.579 7.373,3.5 10.791,5.778c3.402,2.279 6.559,4.867 9.456,7.764c2.914,2.897 5.502,6.055 7.78,9.473c2.279,3.401 4.199,6.998 5.762,10.791c1.579,3.792 2.767,7.698 3.564,11.718c0.798,4.021 1.189,8.09 1.189,12.191Z" style="fill:#fefefe;fill-rule:nonzero;stroke:#9dc454;stroke-width:62.46px;stroke-miterlimit:4;"/><path id="path143" d="M749.496,331.022c-0,4.102 -0.407,8.171 -1.205,12.191c-0.797,4.02 -1.985,7.926 -3.548,11.719c-1.579,3.776 -3.499,7.389 -5.778,10.791c-2.279,3.418 -4.867,6.559 -7.764,9.472c-2.897,2.898 -6.054,5.485 -9.472,7.764c-3.402,2.279 -6.999,4.199 -10.791,5.762c-3.793,1.579 -7.699,2.767 -11.719,3.564c-4.02,0.798 -8.089,1.205 -12.191,1.205c-4.101,-0 -8.154,-0.407 -12.174,-1.205c-4.021,-0.797 -7.927,-1.985 -11.719,-3.564c-3.792,-1.563 -7.389,-3.483 -10.807,-5.762c-3.402,-2.279 -6.56,-4.866 -9.457,-7.764c-2.897,-2.913 -5.485,-6.054 -7.763,-9.472c-2.279,-3.402 -4.216,-7.015 -5.778,-10.791c-1.563,-3.793 -2.751,-7.699 -3.549,-11.719c-0.797,-4.02 -1.204,-8.089 -1.204,-12.191c-0,-4.101 0.407,-8.154 1.204,-12.174c0.798,-4.037 1.986,-7.943 3.549,-11.719c1.562,-3.792 3.499,-7.389 5.778,-10.807c2.278,-3.402 4.866,-6.56 7.763,-9.457c2.897,-2.897 6.055,-5.501 9.457,-7.763c3.418,-2.279 7.015,-4.216 10.807,-5.778c3.792,-1.579 7.698,-2.751 11.719,-3.549c4.02,-0.813 8.073,-1.204 12.174,-1.204c4.102,0 8.171,0.391 12.191,1.204c4.02,0.798 7.926,1.97 11.719,3.549c3.792,1.562 7.389,3.499 10.791,5.778c3.418,2.262 6.575,4.866 9.472,7.763c2.897,2.897 5.485,6.055 7.764,9.457c2.279,3.418 4.199,7.015 5.778,10.807c1.563,3.776 2.751,7.682 3.548,11.719c0.798,4.02 1.205,8.073 1.205,12.174Z" style="fill:#fefefe;fill-rule:nonzero;stroke:#9dc454;stroke-width:62.46px;stroke-miterlimit:4;"/><path id="path145" d="M749.496,580.86c-0,4.101 -0.407,8.154 -1.205,12.174c-0.797,4.036 -1.985,7.926 -3.548,11.719c-1.579,3.792 -3.499,7.389 -5.778,10.807c-2.279,3.402 -4.867,6.559 -7.764,9.456c-2.897,2.898 -6.054,5.485 -9.472,7.764c-3.402,2.279 -6.999,4.216 -10.791,5.778c-3.793,1.563 -7.699,2.751 -11.719,3.548c-4.02,0.814 -8.089,1.205 -12.191,1.205c-4.101,-0 -8.154,-0.391 -12.174,-1.205c-4.021,-0.797 -7.927,-1.985 -11.719,-3.548c-3.792,-1.562 -7.389,-3.499 -10.807,-5.778c-3.402,-2.279 -6.56,-4.866 -9.457,-7.764c-2.897,-2.897 -5.485,-6.054 -7.763,-9.456c-2.279,-3.418 -4.216,-7.015 -5.778,-10.807c-1.563,-3.793 -2.751,-7.683 -3.549,-11.719c-0.797,-4.02 -1.204,-8.073 -1.204,-12.174c-0,-4.102 0.407,-8.171 1.204,-12.191c0.798,-4.02 1.986,-7.927 3.549,-11.719c1.562,-3.792 3.499,-7.389 5.778,-10.791c2.278,-3.418 4.866,-6.576 7.763,-9.473c2.897,-2.897 6.055,-5.485 9.457,-7.763c3.418,-2.279 7.015,-4.2 10.807,-5.778c3.792,-1.563 7.698,-2.751 11.719,-3.549c4.02,-0.797 8.073,-1.204 12.174,-1.204c4.102,0 8.171,0.407 12.191,1.204c4.02,0.798 7.926,1.986 11.719,3.549c3.792,1.578 7.389,3.499 10.791,5.778c3.418,2.278 6.575,4.866 9.472,7.763c2.897,2.897 5.485,6.055 7.764,9.473c2.279,3.402 4.199,6.999 5.778,10.791c1.563,3.792 2.751,7.699 3.548,11.719c0.798,4.02 1.205,8.089 1.205,12.191Z" style="fill:#fefefe;fill-rule:nonzero;stroke:#9dc454;stroke-width:62.46px;stroke-miterlimit:4;"/><path id="path1451" serif:id="path145" d="M749.487,1080.53c0,4.102 -0.406,8.154 -1.204,12.175c-0.797,4.036 -1.986,7.926 -3.548,11.718c-1.579,3.793 -3.499,7.39 -5.778,10.808c-2.279,3.401 -4.867,6.559 -7.764,9.456c-2.897,2.897 -6.055,5.485 -9.472,7.764c-3.402,2.278 -6.999,4.215 -10.791,5.778c-3.793,1.562 -7.699,2.75 -11.719,3.548c-4.02,0.814 -8.089,1.204 -12.191,1.204c-4.102,0 -8.154,-0.39 -12.174,-1.204c-4.021,-0.798 -7.927,-1.986 -11.719,-3.548c-3.793,-1.563 -7.39,-3.5 -10.808,-5.778c-3.401,-2.279 -6.559,-4.867 -9.456,-7.764c-2.897,-2.897 -5.485,-6.055 -7.764,-9.456c-2.278,-3.418 -4.215,-7.015 -5.778,-10.808c-1.562,-3.792 -2.75,-7.682 -3.548,-11.718c-0.797,-4.021 -1.204,-8.073 -1.204,-12.175c-0,-4.101 0.407,-8.17 1.204,-12.191c0.798,-4.02 1.986,-7.926 3.548,-11.718c1.563,-3.793 3.5,-7.39 5.778,-10.791c2.279,-3.418 4.867,-6.576 7.764,-9.473c2.897,-2.897 6.055,-5.485 9.456,-7.764c3.418,-2.278 7.015,-4.199 10.808,-5.778c3.792,-1.562 7.698,-2.75 11.719,-3.548c4.02,-0.797 8.072,-1.204 12.174,-1.204c4.102,-0 8.171,0.407 12.191,1.204c4.02,0.798 7.926,1.986 11.719,3.548c3.792,1.579 7.389,3.5 10.791,5.778c3.417,2.279 6.575,4.867 9.472,7.764c2.897,2.897 5.485,6.055 7.764,9.473c2.279,3.401 4.199,6.998 5.778,10.791c1.562,3.792 2.751,7.698 3.548,11.718c0.798,4.021 1.204,8.09 1.204,12.191Z" style="fill:#fefefe;fill-rule:nonzero;stroke:#9dc454;stroke-width:62.46px;stroke-miterlimit:4;"/><path id="path1452" serif:id="path145" d="M156.152,1080.53c0,4.102 -0.407,8.154 -1.204,12.175c-0.798,4.036 -1.986,7.926 -3.548,11.718c-1.579,3.793 -3.5,7.39 -5.778,10.808c-2.279,3.401 -4.867,6.559 -7.764,9.456c-2.897,2.897 -6.055,5.485 -9.473,7.764c-3.401,2.278 -6.998,4.215 -10.791,5.778c-3.792,1.562 -7.698,2.75 -11.718,3.548c-4.021,0.814 -8.09,1.204 -12.191,1.204c-4.102,0 -8.154,-0.39 -12.175,-1.204c-4.02,-0.798 -7.926,-1.986 -11.718,-3.548c-3.793,-1.563 -7.39,-3.5 -10.808,-5.778c-3.401,-2.279 -6.559,-4.867 -9.456,-7.764c-2.897,-2.897 -5.485,-6.055 -7.764,-9.456c-2.278,-3.418 -4.215,-7.015 -5.778,-10.808c-1.562,-3.792 -2.75,-7.682 -3.548,-11.718c-0.797,-4.021 -1.204,-8.073 -1.204,-12.175c-0,-4.101 0.407,-8.17 1.204,-12.191c0.798,-4.02 1.986,-7.926 3.548,-11.718c1.563,-3.793 3.5,-7.39 5.778,-10.791c2.279,-3.418 4.867,-6.576 7.764,-9.473c2.897,-2.897 6.055,-5.485 9.456,-7.764c3.418,-2.278 7.015,-4.199 10.808,-5.778c3.792,-1.562 7.698,-2.75 11.718,-3.548c4.021,-0.797 8.073,-1.204 12.175,-1.204c4.101,-0 8.17,0.407 12.191,1.204c4.02,0.798 7.926,1.986 11.718,3.548c3.793,1.579 7.39,3.5 10.791,5.778c3.418,2.279 6.576,4.867 9.473,7.764c2.897,2.897 5.485,6.055 7.764,9.473c2.278,3.401 4.199,6.998 5.778,10.791c1.562,3.792 2.75,7.698 3.548,11.718c0.797,4.021 1.204,8.09 1.204,12.191Z" style="fill:#fefefe;fill-rule:nonzero;stroke:#9dc454;stroke-width:62.46px;stroke-miterlimit:4;"/><path id="path153" d="M1467.76,830.681c0,4.101 -0.406,8.17 -1.204,12.19c-0.797,4.02 -1.986,7.927 -3.548,11.719c-1.579,3.792 -3.499,7.389 -5.778,10.791c-2.279,3.418 -4.867,6.576 -7.764,9.473c-2.897,2.897 -6.054,5.485 -9.472,7.763c-3.402,2.279 -6.999,4.2 -10.791,5.778c-3.793,1.563 -7.699,2.751 -11.719,3.549c-4.02,0.797 -8.089,1.204 -12.191,1.204c-4.102,-0 -8.154,-0.407 -12.174,-1.204c-4.021,-0.798 -7.927,-1.986 -11.719,-3.549c-3.793,-1.578 -7.39,-3.499 -10.808,-5.778c-3.401,-2.278 -6.559,-4.866 -9.456,-7.763c-2.897,-2.897 -5.485,-6.055 -7.764,-9.473c-2.278,-3.402 -4.215,-6.999 -5.778,-10.791c-1.562,-3.792 -2.75,-7.699 -3.548,-11.719c-0.797,-4.02 -1.204,-8.089 -1.204,-12.19c-0,-4.102 0.407,-8.155 1.204,-12.175c0.798,-4.02 1.986,-7.926 3.548,-11.719c1.563,-3.792 3.5,-7.389 5.778,-10.807c2.279,-3.402 4.867,-6.559 7.764,-9.456c2.897,-2.898 6.055,-5.485 9.456,-7.764c3.418,-2.279 7.015,-4.216 10.808,-5.778c3.792,-1.563 7.698,-2.751 11.719,-3.548c4.02,-0.798 8.072,-1.205 12.174,-1.205c4.102,0 8.171,0.407 12.191,1.205c4.02,0.797 7.926,1.985 11.719,3.548c3.792,1.562 7.389,3.499 10.791,5.778c3.418,2.279 6.575,4.866 9.472,7.764c2.897,2.897 5.485,6.054 7.764,9.456c2.279,3.418 4.199,7.015 5.778,10.807c1.562,3.793 2.751,7.699 3.548,11.719c0.798,4.02 1.204,8.073 1.204,12.175Z" style="fill:#fefefe;fill-rule:nonzero;stroke:#9dc454;stroke-width:62.46px;stroke-miterlimit:4;"/><path id="path155" d="M1217.92,580.86c0,4.101 -0.39,8.154 -1.204,12.174c-0.798,4.036 -1.986,7.926 -3.548,11.719c-1.563,3.792 -3.5,7.389 -5.778,10.807c-2.279,3.402 -4.867,6.559 -7.764,9.456c-2.897,2.898 -6.055,5.485 -9.456,7.764c-3.418,2.279 -7.015,4.216 -10.808,5.778c-3.792,1.563 -7.682,2.751 -11.719,3.548c-4.02,0.814 -8.072,1.205 -12.174,1.205c-4.102,-0 -8.171,-0.391 -12.191,-1.205c-4.02,-0.797 -7.926,-1.985 -11.719,-3.548c-3.792,-1.562 -7.389,-3.499 -10.791,-5.778c-3.417,-2.279 -6.575,-4.866 -9.472,-7.764c-2.897,-2.897 -5.485,-6.054 -7.764,-9.456c-2.278,-3.418 -4.199,-7.015 -5.778,-10.807c-1.562,-3.793 -2.751,-7.683 -3.548,-11.719c-0.798,-4.02 -1.204,-8.073 -1.204,-12.174c-0,-4.102 0.406,-8.171 1.204,-12.191c0.797,-4.02 1.986,-7.927 3.548,-11.719c1.579,-3.792 3.5,-7.389 5.778,-10.791c2.279,-3.418 4.867,-6.576 7.764,-9.473c2.897,-2.897 6.055,-5.485 9.472,-7.763c3.402,-2.279 6.999,-4.2 10.791,-5.778c3.793,-1.563 7.699,-2.751 11.719,-3.549c4.02,-0.797 8.089,-1.204 12.191,-1.204c4.102,0 8.154,0.407 12.174,1.204c4.037,0.798 7.927,1.986 11.719,3.549c3.793,1.578 7.39,3.499 10.808,5.778c3.401,2.278 6.559,4.866 9.456,7.763c2.897,2.897 5.485,6.055 7.764,9.473c2.278,3.402 4.215,6.999 5.778,10.791c1.562,3.792 2.75,7.699 3.548,11.719c0.814,4.02 1.204,8.089 1.204,12.191Z" style="fill:#fefefe;fill-rule:nonzero;stroke:#9dc454;stroke-width:62.46px;stroke-miterlimit:4;"/><path id="path1551" serif:id="path155" d="M1217.92,1080.53c0,4.102 -0.39,8.154 -1.204,12.175c-0.798,4.036 -1.986,7.926 -3.548,11.718c-1.563,3.793 -3.5,7.39 -5.778,10.808c-2.279,3.401 -4.867,6.559 -7.764,9.456c-2.897,2.897 -6.055,5.485 -9.456,7.764c-3.418,2.278 -7.015,4.215 -10.808,5.778c-3.792,1.562 -7.682,2.75 -11.719,3.548c-4.02,0.814 -8.072,1.204 -12.174,1.204c-4.102,0 -8.171,-0.39 -12.191,-1.204c-4.02,-0.798 -7.926,-1.986 -11.719,-3.548c-3.792,-1.563 -7.389,-3.5 -10.791,-5.778c-3.417,-2.279 -6.575,-4.867 -9.472,-7.764c-2.897,-2.897 -5.485,-6.055 -7.764,-9.456c-2.278,-3.418 -4.199,-7.015 -5.778,-10.808c-1.562,-3.792 -2.751,-7.682 -3.548,-11.718c-0.798,-4.021 -1.204,-8.073 -1.204,-12.175c-0,-4.101 0.406,-8.17 1.204,-12.191c0.797,-4.02 1.986,-7.926 3.548,-11.718c1.579,-3.793 3.5,-7.39 5.778,-10.791c2.279,-3.418 4.867,-6.576 7.764,-9.473c2.897,-2.897 6.055,-5.485 9.472,-7.764c3.402,-2.278 6.999,-4.199 10.791,-5.778c3.793,-1.562 7.699,-2.75 11.719,-3.548c4.02,-0.797 8.089,-1.204 12.191,-1.204c4.102,-0 8.154,0.407 12.174,1.204c4.037,0.798 7.927,1.986 11.719,3.548c3.793,1.579 7.39,3.5 10.808,5.778c3.401,2.279 6.559,4.867 9.456,7.764c2.897,2.897 5.485,6.055 7.764,9.473c2.278,3.401 4.215,6.998 5.778,10.791c1.562,3.792 2.75,7.698 3.548,11.718c0.814,4.021 1.204,8.09 1.204,12.191Z" style="fill:#fefefe;fill-rule:nonzero;stroke:#9dc454;stroke-width:62.46px;stroke-miterlimit:4;"/><path id="path157" d="M968.099,830.681c0,4.101 -0.407,8.17 -1.204,12.19c-0.798,4.02 -1.986,7.927 -3.565,11.719c-1.562,3.792 -3.483,7.389 -5.761,10.791c-2.279,3.418 -4.867,6.576 -7.764,9.473c-2.914,2.897 -6.055,5.485 -9.473,7.763c-3.401,2.279 -7.015,4.2 -10.791,5.778c-3.792,1.563 -7.698,2.751 -11.719,3.549c-4.02,0.797 -8.089,1.204 -12.19,1.204c-4.102,-0 -8.155,-0.407 -12.175,-1.204c-4.036,-0.798 -7.942,-1.986 -11.719,-3.549c-3.792,-1.578 -7.389,-3.499 -10.807,-5.778c-3.402,-2.278 -6.559,-4.866 -9.456,-7.763c-2.897,-2.897 -5.485,-6.055 -7.764,-9.473c-2.279,-3.402 -4.215,-6.999 -5.778,-10.791c-1.579,-3.792 -2.751,-7.699 -3.548,-11.719c-0.814,-4.02 -1.204,-8.089 -1.204,-12.19c-0,-4.102 0.39,-8.155 1.204,-12.175c0.797,-4.02 1.969,-7.926 3.548,-11.719c1.563,-3.792 3.499,-7.389 5.778,-10.807c2.279,-3.402 4.867,-6.559 7.764,-9.456c2.897,-2.898 6.054,-5.485 9.456,-7.764c3.418,-2.279 7.015,-4.216 10.807,-5.778c3.777,-1.563 7.683,-2.751 11.719,-3.548c4.02,-0.798 8.073,-1.205 12.175,-1.205c4.101,0 8.17,0.407 12.19,1.205c4.021,0.797 7.927,1.985 11.719,3.548c3.776,1.562 7.39,3.499 10.791,5.778c3.418,2.279 6.559,4.866 9.473,7.764c2.897,2.897 5.485,6.054 7.764,9.456c2.278,3.418 4.199,7.015 5.761,10.807c1.579,3.793 2.767,7.699 3.565,11.719c0.797,4.02 1.204,8.073 1.204,12.175Z" style="fill:#fefefe;fill-rule:nonzero;stroke:#9dc454;stroke-width:62.46px;stroke-miterlimit:4;"/></g></svg>