<?xml version="1.0" encoding="UTF-8"?>
<!DOCTYPE svg PUBLIC "-//W3C//DTD SVG 1.1//EN" "http://www.w3.org/Graphics/SVG/1.1/DTD/svg11.dtd">
<svg xmlns="http://www.w3.org/2000/svg" xmlns:xlink="http://www.w3.org/1999/xlink" version="1.1" width="260px" height="260px" viewBox="-0.5 -0.5 260 260"><defs/><g><ellipse cx="35" cy="65" rx="20" ry="20" fill="#ffffff" stroke="#000000" stroke-width="10" pointer-events="all"/><ellipse cx="155" cy="25" rx="20" ry="20" fill="#ffffff" stroke="#000000" stroke-width="10" pointer-events="all"/><ellipse cx="115" cy="135" rx="20" ry="20" fill="#ffffff" stroke="#000000" stroke-width="10" pointer-events="all"/><ellipse cx="235" cy="85" rx="20" ry="20" fill="#ffffff" stroke="#000000" stroke-width="10" pointer-events="all"/><ellipse cx="25" cy="195" rx="20" ry="20" fill="#ffffff" stroke="#000000" stroke-width="10" pointer-events="all"/><ellipse cx="145" cy="235" rx="20" ry="20" fill="#ffffff" stroke="#000000" stroke-width="10" pointer-events="all"/><ellipse cx="225" cy="175" rx="20" ry="20" fill="#ffffff" stroke="#000000" stroke-width="10" pointer-events="all"/><path d="M 133.44 129.72 L 216.28 92" fill="none" stroke="#000000" stroke-width="10" stroke-miterlimit="10" pointer-events="stroke"/><path d="M 132.84 142.28 L 206 165.72" fill="none" stroke="#000000" stroke-width="10" stroke-miterlimit="10" pointer-events="stroke"/><path d="M 163.16 225.16 L 210.86 189.14" fill="none" stroke="#000000" stroke-width="10" stroke-miterlimit="10" pointer-events="stroke"/><path d="M 123.72 116.56 L 149.44 43.44" fill="none" stroke="#000000" stroke-width="10" stroke-miterlimit="10" pointer-events="stroke"/><path d="M 100.86 120.86 L 49.14 79.14" fill="none" stroke="#000000" stroke-width="10" stroke-miterlimit="10" pointer-events="stroke"/><path d="M 100.86 149.14 L 42.12 184.65" fill="none" stroke="#000000" stroke-width="10" stroke-miterlimit="10" pointer-events="stroke"/><path d="M 25 175 L 30 84.56" fill="none" stroke="#000000" stroke-width="10" stroke-miterlimit="10" pointer-events="stroke"/><path d="M 55.16 57.72 L 136.28 32.56" fill="none" stroke="#000000" stroke-width="10" stroke-miterlimit="10" pointer-events="stroke"/></g></svg>