<?xml version="1.0" encoding="UTF-8"?>
<!DOCTYPE svg PUBLIC "-//W3C//DTD SVG 1.1//EN" "http://www.w3.org/Graphics/SVG/1.1/DTD/svg11.dtd">
<svg xmlns="http://www.w3.org/2000/svg" xmlns:xlink="http://www.w3.org/1999/xlink" version="1.1" width="330px" height="160px" viewBox="-0.5 -0.5 330 160"><defs/><g><path d="M 6.46 19.14 L 7.68 17.17 L 14.45 13.33 L 26.48 6.99 L 45.69 6.33 L 66.79 4.56 L 83.21 6.48 L 97.97 13.6 L 105.63 15.64 L 106.83 140.41 L 101.27 144.89 L 84.7 152.22 L 53.27 155.3 L 25.38 152.25 L 12.72 146.51 L 6.72 143.72 L 6.33 21.7" fill="#ffffff" stroke="none" pointer-events="all"/><path d="M 5.01 21.08 M 5 20 C 4.43 11.82 25.4 3.1 55.12 4.65 M 5.18 19.35 C 4.42 12.74 27.38 5.31 53.23 3.42 M 55 5 C 80.75 6.56 103.96 13.13 105.66 21.24 M 54.46 3.46 C 82.12 3.21 105.42 11.23 104.7 21.01 M 104.9 19.71 C 102.84 61.4 104.8 103.31 106.41 141.47 M 105.89 20.9 C 105.05 52.72 104.61 85.33 104.16 140.69 M 105 140 C 106.38 147.25 84.46 153.06 56.4 154.13 M 106.15 140.14 C 105.61 150.07 80.45 156.04 52.94 155.69 M 55 155 C 28.65 156.59 5.77 147.46 4.42 139.37 M 56.35 154.77 C 27.53 156.14 7.06 146.68 5.64 137.79 M 3.78 140.84 C 5.4 95.68 2.3 52.27 4.61 19.67 M 4.68 139.68 C 4.51 107.38 3.32 75.24 4.3 19.45" fill="none" stroke="#000000" stroke-width="10" stroke-linejoin="round" stroke-linecap="round" stroke-miterlimit="10" pointer-events="all"/><path d="M 106.46 19.14 M 105 20 C 105.91 29.99 82.04 34.42 56.66 35.2 M 105.77 21.03 C 105.3 27.03 84.34 37.28 56.97 34.14 M 55 35 C 29.22 35.41 5.2 27.33 6.64 18.66 M 56.75 34.78 C 25.47 34.79 4.06 26.13 3.01 20.35" fill="none" stroke="#000000" stroke-width="10" stroke-linejoin="round" stroke-linecap="round" stroke-miterlimit="10" pointer-events="all"/><path d="M 226.46 19.48 L 226.09 16.03 L 233.41 11.01 L 245.64 8.43 L 265.96 3.54 L 285.18 4.98 L 304.76 9.34 L 314.67 12.13 L 324.5 15.27 L 325.01 138.9 L 322.11 144.39 L 301.05 153.3 L 275.72 154.84 L 245.63 151.35 L 231.95 150.3 L 227.08 143.11 L 223.46 19.07" fill="#ffffff" stroke="none" pointer-events="all"/><path d="M 223.64 21.9 M 225 20 C 226.92 12.1 245.93 5.16 273.72 5.05 M 223.99 18.05 C 224.4 11.65 249.44 4.2 273.59 6.32 M 275 5 C 302.01 6.39 325.55 12.65 323.46 21.55 M 275.99 5.69 C 304.22 6.11 324.96 13.51 324.83 18.38 M 324.36 21.58 C 325.37 62.39 325.31 102.32 323.93 139.65 M 325.51 19.23 C 324.74 44.27 325.31 68.78 324.89 140.79 M 325 140 C 326.78 148.67 303.51 156.87 275.29 154.1 M 324.41 140.37 C 326.18 148.04 300.42 154.32 276.31 155.15 M 275 155 C 245.77 154.73 226.12 146.84 225.48 139.43 M 273.09 154.61 C 246.04 155.09 223.7 149.3 224.76 138.8 M 224.12 141.29 C 223.98 104.93 223.55 73.4 225.75 20.44 M 224.29 140.47 C 224.14 102.28 224.34 65.58 224.76 19.78" fill="none" stroke="#000000" stroke-width="10" stroke-linejoin="round" stroke-linecap="round" stroke-miterlimit="10" pointer-events="all"/><path d="M 326.46 19.48 M 325 20 C 324.87 27.67 301.2 35.86 275.07 34.05 M 326.04 18.23 C 327.07 30.32 300.55 35.59 275.12 34.63 M 275 35 C 247.4 33.9 226.04 26.84 225.52 18.29 M 273.1 35.86 C 245.76 33.75 223.17 30.49 225.83 19.82" fill="none" stroke="#000000" stroke-width="10" stroke-linejoin="round" stroke-linecap="round" stroke-miterlimit="10" pointer-events="all"/><path d="M 160.76 15.89 C 164.78 14.87 170.47 15.48 174.3 17.42 C 178.13 19.36 181.91 23.69 183.74 27.55 C 185.57 31.4 186.69 36.55 185.29 40.55 C 183.9 44.55 179.23 49.05 175.36 51.56 C 171.48 54.07 166.32 56.04 162.04 55.59 C 157.77 55.14 152.82 52.23 149.7 48.89 C 146.59 45.54 143.56 39.83 143.35 35.52 C 143.13 31.21 144.93 26.4 148.41 23.01 C 151.89 19.62 160.98 16.3 164.25 15.18 C 167.53 14.05 167.92 15.98 168.07 16.23 M 160.23 16.88 C 164.71 15.55 171.62 16.01 175.6 17.69 C 179.58 19.36 182.37 23.31 184.1 26.91 C 185.83 30.51 187.51 34.92 185.98 39.28 C 184.45 43.65 178.62 50.58 174.9 53.1 C 171.18 55.62 167.92 54.91 163.69 54.39 C 159.45 53.88 152.55 52.83 149.51 50.02 C 146.46 47.22 145.72 42.12 145.39 37.56 C 145.06 33 145.17 26.34 147.53 22.66 C 149.88 18.98 157.21 16.7 159.54 15.48 C 161.88 14.27 161.32 15.14 161.52 15.38" fill="#ffffff" stroke="none" pointer-events="all"/><path d="M 158.22 16.58 C 162.05 14.9 168.71 14.44 172.94 15.97 C 177.17 17.5 181.49 21.9 183.58 25.75 C 185.67 29.59 186.6 34.9 185.49 39.06 C 184.37 43.21 180.35 48.19 176.89 50.68 C 173.44 53.16 168.98 54.01 164.74 53.97 C 160.5 53.92 155.01 53.32 151.46 50.42 C 147.91 47.51 143.91 40.99 143.44 36.52 C 142.97 32.06 145.56 27.28 148.65 23.64 C 151.75 20 159.36 15.89 162.02 14.67 C 164.69 13.45 164.43 15.77 164.67 16.32 M 163.26 14.3 C 167.62 13.52 173.5 16.02 177.13 18.56 C 180.77 21.09 184.02 25.73 185.07 29.52 C 186.13 33.31 184.98 37.34 183.45 41.29 C 181.93 45.24 179.86 51.08 175.92 53.23 C 171.98 55.38 164.45 55.34 159.82 54.19 C 155.19 53.04 150.78 49.91 148.14 46.35 C 145.49 42.8 143.67 36.77 143.96 32.87 C 144.26 28.97 146.79 25.73 149.92 22.94 C 153.06 20.16 160.96 17.34 162.8 16.18 C 164.64 15.02 161.2 15.95 160.97 15.99" fill="none" stroke="#000000" stroke-width="10" stroke-linejoin="round" stroke-linecap="round" stroke-miterlimit="10" pointer-events="all"/><path d="M 185 35 L 225 50" fill="none" stroke="none" pointer-events="stroke"/><path d="M 186.46 35.16 M 183.75 35.92 C 198.56 41.38 213.22 45.85 225.53 50.89 M 184.14 35.77 C 196.15 38.75 206.34 43.72 224.4 49.51" fill="none" stroke="#000000" stroke-width="10" stroke-linejoin="round" stroke-linecap="round" stroke-miterlimit="10" pointer-events="stroke"/><path d="M 158.98 75.86 C 162.81 74.5 168.5 74.43 172.75 76.07 C 177 77.7 182.4 81.57 184.46 85.67 C 186.51 89.77 186.14 96.39 185.08 100.67 C 184.03 104.95 181.75 109.06 178.13 111.33 C 174.52 113.61 167.81 114.66 163.38 114.3 C 158.95 113.95 154.66 112.15 151.55 109.19 C 148.44 106.23 145.33 100.62 144.74 96.53 C 144.15 92.45 145.12 88.17 147.99 84.66 C 150.85 81.16 159.26 77.07 161.93 75.5 C 164.59 73.93 164.09 74.91 163.98 75.24 M 158.56 76.32 C 162.49 75.13 168.28 76.04 172.76 77.62 C 177.23 79.21 183.55 82.21 185.39 85.85 C 187.23 89.5 185.51 95.31 183.79 99.51 C 182.07 103.7 178.62 108.45 175.07 111.01 C 171.52 113.57 166.46 115.42 162.51 114.85 C 158.56 114.29 154.62 110.62 151.35 107.63 C 148.09 104.63 143.4 101.09 142.92 96.89 C 142.44 92.68 145.45 85.8 148.49 82.41 C 151.53 79.01 159.35 77.46 161.16 76.52 C 162.96 75.57 159.69 76.64 159.34 76.74" fill="#ffffff" stroke="none" pointer-events="all"/><path d="M 169.54 76.04 C 173.85 76.51 179.25 78.81 182.03 81.89 C 184.81 84.98 186.57 90.14 186.21 94.56 C 185.84 98.99 182.82 104.94 179.83 108.44 C 176.85 111.94 172.46 115.05 168.3 115.58 C 164.15 116.11 158.87 113.99 154.92 111.62 C 150.96 109.26 146.04 105.43 144.58 101.38 C 143.13 97.33 144.44 91.33 146.18 87.32 C 147.91 83.32 150.97 79.34 154.99 77.34 C 159 75.33 167.27 75.39 170.28 75.3 C 173.29 75.21 172.9 76.56 173.04 76.78 M 155.16 76.9 C 158.45 75.19 164.62 75.15 169.27 76.39 C 173.91 77.63 180.28 81.13 183.02 84.32 C 185.77 87.51 186.38 91.59 185.75 95.53 C 185.12 99.47 182.41 104.6 179.22 107.96 C 176.02 111.33 171 114.97 166.57 115.71 C 162.14 116.45 156.35 114.93 152.65 112.39 C 148.94 109.86 145.41 105.03 144.32 100.51 C 143.24 96 144.25 89.16 146.13 85.3 C 148.02 81.43 153.77 78.76 155.65 77.31 C 157.54 75.87 157 76.5 157.44 76.62" fill="none" stroke="#000000" stroke-width="10" stroke-linejoin="round" stroke-linecap="round" stroke-miterlimit="10" pointer-events="all"/><path d="M 185 95 L 225 95" fill="none" stroke="none" pointer-events="stroke"/><path d="M 186.46 95.84 M 183.11 94.25 C 199 93.17 214.82 96.73 226.39 94.98 M 185.02 95.4 C 199.81 95.7 214.12 95.56 224.75 95.58" fill="none" stroke="#000000" stroke-width="10" stroke-linejoin="round" stroke-linecap="round" stroke-miterlimit="10" pointer-events="stroke"/><path d="M 145 95 L 105 110" fill="none" stroke="none" pointer-events="stroke"/><path d="M 146.46 96.18 M 144.79 93.41 C 132.97 97.7 120.98 103.95 106.81 111.52 M 144.46 95.21 C 132.38 99.47 121.38 104.41 104.92 109.12" fill="none" stroke="#000000" stroke-width="10" stroke-linejoin="round" stroke-linecap="round" stroke-miterlimit="10" pointer-events="stroke"/><path d="M 105 50 L 145 35" fill="none" stroke="none" pointer-events="stroke"/><path d="M 106.46 51.52 M 106.47 51.57 C 115.49 44.95 124.46 41.38 143.24 34.06 M 105.9 50.03 C 115.55 47.26 123.98 42.42 145.1 34.66" fill="none" stroke="#000000" stroke-width="10" stroke-linejoin="round" stroke-linecap="round" stroke-miterlimit="10" pointer-events="stroke"/><path d="M 145 95 L 105 80" fill="none" stroke="none" pointer-events="stroke"/><path d="M 146.46 96.86 M 144.15 95.74 C 130.2 88.87 116.12 85.62 103.67 80.61 M 145.34 94.84 C 129.03 88.94 113.25 82.46 105.27 80.2" fill="none" stroke="#000000" stroke-width="10" stroke-linejoin="round" stroke-linecap="round" stroke-miterlimit="10" pointer-events="stroke"/></g></svg>