<?xml version="1.0" encoding="UTF-8"?>
<!DOCTYPE svg PUBLIC "-//W3C//DTD SVG 1.1//EN" "http://www.w3.org/Graphics/SVG/1.1/DTD/svg11.dtd">
<svg xmlns="http://www.w3.org/2000/svg" xmlns:xlink="http://www.w3.org/1999/xlink" version="1.1" width="304px" height="304px" viewBox="-0.5 -0.5 304 304"><defs/><g><ellipse cx="108" cy="108" rx="100" ry="100" fill="none" stroke="none" pointer-events="all"/><path d="M 107.96 6 C 120.68 4.52 135.95 9.3 148.06 14.41 C 160.16 19.53 171.19 27.54 180.58 36.68 C 189.96 45.82 199.32 57.37 204.35 69.25 C 209.37 81.13 210.68 94.86 210.7 107.97 C 210.73 121.08 209.33 135.86 204.5 147.91 C 199.68 159.96 191.19 171.2 181.76 180.28 C 172.34 189.37 160.43 197.38 147.95 202.44 C 135.48 207.49 120.48 210.77 106.92 210.63 C 93.35 210.49 78.82 206.91 66.56 201.59 C 54.3 196.28 42.47 187.84 33.38 178.75 C 24.29 169.66 16.92 159.09 12 147.03 C 7.08 134.98 3.66 119.56 3.85 106.4 C 4.04 93.25 7.76 80.21 13.13 68.09 C 18.5 55.97 26.66 42.82 36.09 33.68 C 45.52 24.55 57.09 18.1 69.7 13.28 C 82.31 8.46 104.04 5.67 111.76 4.77 C 119.48 3.87 116.21 5.93 116.02 7.89 M 80.15 10.12 C 91.7 5.21 107.3 5 120.67 6.39 C 134.04 7.77 148.84 11.83 160.37 18.43 C 171.91 25.04 181.67 35.47 189.86 46.04 C 198.06 56.61 206.05 68.98 209.56 81.86 C 213.06 94.73 212.85 110.43 210.91 123.27 C 208.98 136.11 204.63 147.82 197.93 158.92 C 191.23 170.01 181.34 181.81 170.73 189.84 C 160.11 197.87 147.17 203.79 134.27 207.08 C 121.37 210.36 106.6 211.37 93.31 209.56 C 80.03 207.75 66.06 203.11 54.56 196.23 C 43.05 189.35 32.13 178.89 24.27 168.28 C 16.42 157.67 10.55 144.92 7.43 132.57 C 4.3 120.22 3.56 106.89 5.54 94.17 C 7.52 81.44 12.39 67.88 19.33 56.22 C 26.26 44.56 36.95 32.04 47.17 24.22 C 57.39 16.4 74.63 11.58 80.64 9.31 C 86.65 7.04 82.86 9.05 83.23 10.59" fill="none" stroke="#000000" stroke-width="17" stroke-linejoin="round" stroke-linecap="round" stroke-miterlimit="10" pointer-events="all"/><path d="M 178.71 178.71 L 288 288" fill="none" stroke="none" pointer-events="stroke"/><path d="M 180.17 179.99 M 179.7 178.41 C 213.4 212.52 242.07 244.21 286.87 287.5 M 177.79 179.44 C 210.83 210.58 243.44 243.24 287.8 288.28" fill="none" stroke="#000000" stroke-width="28" stroke-linejoin="round" stroke-linecap="round" stroke-miterlimit="10" pointer-events="stroke"/><path d="M 43.55 84.61 C 47.81 84.85 53.25 87.49 56.22 90.64 C 59.18 93.8 61.2 99.17 61.33 103.55 C 61.47 107.92 59.52 113.18 57.02 116.88 C 54.53 120.58 50.72 124.58 46.36 125.73 C 42 126.87 35.04 125.7 30.87 123.75 C 26.7 121.79 22.97 118.18 21.34 113.98 C 19.72 109.78 19.78 102.97 21.13 98.56 C 22.48 94.14 25 89.81 29.46 87.49 C 33.93 85.18 44.19 84.55 47.92 84.68 C 51.66 84.81 52.03 87.76 51.88 88.26 M 40.39 83.73 C 44.57 83.55 48.54 86.61 52.04 89.59 C 55.55 92.57 60.35 97.61 61.43 101.62 C 62.51 105.63 60.73 110.07 58.52 113.66 C 56.31 117.26 51.87 121.13 48.18 123.2 C 44.49 125.26 40.22 126.98 36.38 126.07 C 32.53 125.15 27.85 121.57 25.09 117.71 C 22.34 113.84 19.47 107.51 19.84 102.89 C 20.22 98.26 23.74 92.87 27.34 89.97 C 30.94 87.06 39.3 86.52 41.44 85.45 C 43.58 84.39 40.46 83.58 40.18 83.58" fill="#ffffff" stroke="none" pointer-events="all"/><path d="M 50.14 87.15 C 54.05 88.87 58.07 92.31 59.78 96.41 C 61.49 100.52 61.79 107.28 60.41 111.79 C 59.03 116.3 55.25 121.08 51.5 123.47 C 47.74 125.86 42.07 126.8 37.87 126.14 C 33.66 125.49 29.29 122.86 26.26 119.55 C 23.22 116.23 19.87 110.79 19.66 106.25 C 19.46 101.71 22.06 95.77 25.01 92.3 C 27.95 88.83 32.67 86.27 37.34 85.43 C 42.01 84.59 50.2 86.59 53.03 87.27 C 55.86 87.96 54.64 89.32 54.35 89.55 M 48.62 84.81 C 52.28 86.5 57.12 92.28 59.41 96.6 C 61.71 100.91 63.62 106.35 62.41 110.67 C 61.2 114.99 55.88 120.06 52.17 122.53 C 48.46 124.99 44.26 125.92 40.15 125.44 C 36.05 124.96 30.83 122.85 27.54 119.65 C 24.26 116.46 20.75 110.8 20.42 106.28 C 20.08 101.76 23.24 96.08 25.55 92.56 C 27.85 89.04 30.37 86.46 34.26 85.16 C 38.16 83.87 46.56 84.69 48.91 84.78 C 51.26 84.88 48.25 85.18 48.36 85.73" fill="none" stroke="#000000" stroke-width="10" stroke-linejoin="round" stroke-linecap="round" stroke-miterlimit="10" pointer-events="all"/><path d="M 153.53 46.05 C 157.27 44.23 161.76 44.22 165.76 45.51 C 169.76 46.8 174.86 50.15 177.52 53.79 C 180.19 57.43 182.03 62.86 181.74 67.36 C 181.45 71.85 178.97 77.77 175.78 80.75 C 172.58 83.73 166.92 85.15 162.55 85.23 C 158.18 85.32 153.25 83.9 149.57 81.26 C 145.89 78.62 141.67 73.76 140.48 69.39 C 139.28 65.01 140.14 59.1 142.41 55.01 C 144.68 50.92 151.79 46.56 154.1 44.83 C 156.41 43.1 156.16 44.27 156.26 44.64 M 159.55 43.43 C 163.96 43.07 170.13 46.61 173.63 49.56 C 177.14 52.5 179.71 56.82 180.59 61.11 C 181.48 65.4 181 71.29 178.95 75.3 C 176.89 79.32 172.38 83.35 168.27 85.18 C 164.16 87.02 158.5 87.76 154.28 86.32 C 150.07 84.87 145.36 80.47 143 76.5 C 140.63 72.54 139.28 66.97 140.08 62.52 C 140.88 58.07 144.36 53.07 147.8 49.81 C 151.25 46.54 158.86 43.62 160.74 42.95 C 162.63 42.27 159.14 45.05 159.09 45.73" fill="#ffffff" stroke="none" pointer-events="all"/><path d="M 165.83 45.28 C 170.01 46.21 175.09 49.51 177.71 52.85 C 180.34 56.18 181.68 61 181.57 65.28 C 181.45 69.55 179.88 75.08 177.04 78.49 C 174.19 81.91 168.97 85.14 164.49 85.76 C 160.01 86.39 153.94 84.53 150.17 82.24 C 146.39 79.95 143.18 76.21 141.83 72.01 C 140.48 67.82 140.57 61.34 142.07 57.06 C 143.58 52.78 146.53 48.37 150.85 46.34 C 155.16 44.31 164.86 44.9 167.95 44.88 C 171.04 44.86 169.57 45.93 169.37 46.22 M 167.65 44.13 C 171.68 45.1 174.45 50.09 176.82 54.04 C 179.19 57.98 182.17 63.6 181.87 67.79 C 181.57 71.98 178.26 76.38 175.02 79.19 C 171.78 82.01 166.56 84.42 162.42 84.69 C 158.28 84.95 153.75 83.41 150.17 80.76 C 146.58 78.1 142.22 73.12 140.9 68.74 C 139.58 64.36 140.31 58.22 142.27 54.47 C 144.22 50.73 148.53 47.63 152.64 46.28 C 156.74 44.93 164.57 46.73 166.91 46.37 C 169.25 46 166.98 44.23 166.66 44.1" fill="none" stroke="#000000" stroke-width="10" stroke-linejoin="round" stroke-linecap="round" stroke-miterlimit="10" pointer-events="all"/><path d="M 121.72 156 C 125.91 155.91 131.86 157.69 135 160.33 C 138.15 162.97 139.89 167.85 140.61 171.83 C 141.33 175.81 141.54 180.5 139.33 184.21 C 137.13 187.93 131.59 192.64 127.37 194.13 C 123.16 195.62 118.17 194.89 114.06 193.15 C 109.95 191.4 105.07 187.19 102.72 183.65 C 100.36 180.11 98.96 175.79 99.95 171.9 C 100.93 168.01 104.36 162.93 108.63 160.3 C 112.91 157.66 122.4 156.5 125.62 156.1 C 128.85 155.7 128.07 157.67 127.99 157.89 M 118.71 155.12 C 122.85 154.64 128.72 155.47 132.22 158.13 C 135.73 160.79 138.57 166.91 139.76 171.07 C 140.95 175.22 141.27 179.51 139.37 183.06 C 137.47 186.6 132.4 190.41 128.37 192.34 C 124.34 194.27 119.27 196 115.19 194.64 C 111.11 193.29 106.38 187.91 103.9 184.2 C 101.43 180.49 100.1 176.24 100.33 172.39 C 100.55 168.54 101.98 163.92 105.27 161.1 C 108.56 158.27 117.42 156.14 120.05 155.43 C 122.67 154.72 120.82 156.52 121 156.84" fill="#ffffff" stroke="none" pointer-events="all"/><path d="M 121.22 156.74 C 125.72 156.21 131.2 157.25 134.55 159.64 C 137.9 162.02 140.5 167.05 141.34 171.03 C 142.17 175.02 141.63 180.05 139.56 183.56 C 137.49 187.08 133.05 190.41 128.93 192.13 C 124.81 193.85 119.09 195.19 114.82 193.9 C 110.55 192.61 105.71 187.91 103.31 184.38 C 100.91 180.85 99.8 176.77 100.42 172.71 C 101.03 168.65 102.98 162.79 106.99 160.01 C 110.99 157.22 120.98 156.5 124.42 155.99 C 127.86 155.49 127.74 156.7 127.62 156.98 M 123.54 155.89 C 127.84 156.56 133.95 159.88 136.83 163.05 C 139.72 166.21 140.73 170.85 140.85 174.88 C 140.97 178.91 140.23 183.98 137.53 187.24 C 134.83 190.51 129.23 193.57 124.65 194.49 C 120.08 195.4 113.87 194.58 110.07 192.73 C 106.27 190.88 103.13 187.12 101.85 183.37 C 100.58 179.63 100.86 174.23 102.42 170.26 C 103.98 166.29 107.48 161.71 111.2 159.56 C 114.93 157.41 122.5 157.67 124.77 157.38 C 127.04 157.1 125.07 157.71 124.84 157.86" fill="none" stroke="#000000" stroke-width="10" stroke-linejoin="round" stroke-linecap="round" stroke-miterlimit="10" pointer-events="all"/><path d="M 129.72 156.56 L 155.44 83.44" fill="none" stroke="none" pointer-events="stroke"/><path d="M 131.18 155.2 M 129.43 156.91 C 138.55 127.2 147.68 103.55 156.01 85.11 M 130.55 156.55 C 136.35 136.35 143.05 117.48 155.94 83.88" fill="none" stroke="#000000" stroke-width="10" stroke-linejoin="round" stroke-linecap="round" stroke-miterlimit="10" pointer-events="stroke"/><path d="M 106.86 160.86 L 55.14 119.14" fill="none" stroke="none" pointer-events="stroke"/><path d="M 108.32 159.84 M 108.25 160.37 C 92.45 147.23 76.31 136.85 56.14 118.36 M 107.13 160.66 C 96.73 152.8 85.09 143.17 55.81 120.11" fill="none" stroke="#000000" stroke-width="10" stroke-linejoin="round" stroke-linecap="round" stroke-miterlimit="10" pointer-events="stroke"/><path d="M 61.16 97.72 L 142.28 72.56" fill="none" stroke="none" pointer-events="stroke"/><path d="M 62.62 97.04 M 60.23 96.4 C 77.27 90.52 97.85 85.19 143.71 73.32 M 60.87 97.34 C 89.53 88.52 118.66 79.26 143.13 72.07" fill="none" stroke="#000000" stroke-width="10" stroke-linejoin="round" stroke-linecap="round" stroke-miterlimit="10" pointer-events="stroke"/></g></svg>