<?xml version="1.0" encoding="UTF-8"?>
<!DOCTYPE svg PUBLIC "-//W3C//DTD SVG 1.1//EN" "http://www.w3.org/Graphics/SVG/1.1/DTD/svg11.dtd">
<svg xmlns="http://www.w3.org/2000/svg" xmlns:xlink="http://www.w3.org/1999/xlink" version="1.1" width="217px" height="293px" viewBox="-0.5 -0.5 217 293"><defs/><g><ellipse cx="108" cy="145" rx="100" ry="100" fill="none" stroke="none" pointer-events="all"/><path d="M 155.45 56.04 C 167.16 59.99 177.9 69.09 186.43 78.75 C 194.96 88.4 202.36 101.59 206.62 113.97 C 210.88 126.35 213.18 140.14 211.98 153.02 C 210.78 165.9 205.72 179.81 199.42 191.24 C 193.12 202.67 184.28 213.41 174.18 221.61 C 164.08 229.82 151.54 236.58 138.82 240.47 C 126.09 244.35 110.94 245.99 97.82 244.92 C 84.7 243.85 71.53 239.92 60.09 234.07 C 48.64 228.23 37.58 219.62 29.17 209.87 C 20.76 200.11 13.57 187.89 9.65 175.57 C 5.73 163.24 4.66 149 5.65 135.93 C 6.64 122.86 9.63 108.69 15.58 97.14 C 21.54 85.59 30.99 74.67 41.38 66.64 C 51.77 58.61 65 52.77 77.95 48.96 C 90.89 45.16 105.18 42.24 119.06 43.82 C 132.94 45.4 153.48 55.14 161.24 58.46 C 169 61.79 166.67 62.28 165.62 63.77 M 106.8 45.15 C 119.43 43.15 134.19 46.34 146.41 50.63 C 158.64 54.92 170.85 61.95 180.16 70.9 C 189.47 79.85 197.1 92.33 202.28 104.34 C 207.47 116.35 210.73 130.17 211.28 142.94 C 211.83 155.72 210.48 169.02 205.6 180.99 C 200.71 192.97 191.5 205.55 181.95 214.82 C 172.4 224.08 160.38 231.39 148.29 236.57 C 136.19 241.76 122.4 245.79 109.38 245.93 C 96.37 246.08 82.42 242.17 70.2 237.45 C 57.98 232.74 45.62 226.28 36.07 217.66 C 26.52 209.05 18.16 197.54 12.9 185.77 C 7.63 173.99 4.45 160.01 4.48 147.01 C 4.51 134.02 8.1 120.03 13.08 107.8 C 18.07 95.58 25.28 82.76 34.4 73.66 C 43.52 64.56 56.19 58.1 67.81 53.19 C 79.43 48.29 98 45.67 104.12 44.22 C 110.23 42.77 103.96 43.06 104.49 44.51" fill="none" stroke="#000000" stroke-width="17" stroke-linejoin="round" stroke-linecap="round" stroke-miterlimit="10" pointer-events="all"/><path d="M 88 88 L 120.93 55.07 Q 128 48 120.93 40.93 L 88 8" fill="none" stroke="none" pointer-events="stroke"/><path d="M 89.46 88.26 M 87.95 86.21 C 100.24 77.43 108.34 67.44 122.52 53.94 M 88.76 87.29 C 97.01 79.53 106.23 69.87 120.2 55.74 M 120.93 55.07 C 123.95 51.01 125.46 46.48 120.6 40.06 M 122.14 55.27 C 125.48 49.1 126.88 44.27 122.25 43.14 M 121.29 39.07 C 112.09 31.75 103.42 21.72 87.19 6.82 M 121.78 40.32 C 112.33 32.47 102.99 22.9 88.06 7.04" fill="none" stroke="#000000" stroke-width="17" stroke-linejoin="round" stroke-linecap="round" stroke-miterlimit="10" pointer-events="stroke"/><path d="M 128 283 L 95.07 250.07 Q 88 243 95.07 235.93 L 128 203" fill="none" stroke="none" pointer-events="stroke"/><path d="M 129.46 283.6 M 129.63 284.37 C 118.45 275.18 110.9 265.93 93.08 250.48 M 128.2 282.11 C 120.46 275.75 113.49 268.47 94.52 249.28 M 95.07 250.07 C 88.92 245.11 89.4 241.27 93.19 234.6 M 96.63 249.66 C 88.62 245.04 89.97 239.73 93.09 235.12 M 93.48 236.88 C 101.96 229.14 110.17 221.27 126.25 203.61 M 94.55 235.24 C 102.83 229.07 109.3 222.45 128.12 202.9" fill="none" stroke="#000000" stroke-width="17" stroke-linejoin="round" stroke-linecap="round" stroke-miterlimit="10" pointer-events="stroke"/></g></svg>