<?xml version="1.0" encoding="UTF-8"?>
<!DOCTYPE svg PUBLIC "-//W3C//DTD SVG 1.1//EN" "http://www.w3.org/Graphics/SVG/1.1/DTD/svg11.dtd">
<svg xmlns="http://www.w3.org/2000/svg" xmlns:xlink="http://www.w3.org/1999/xlink" version="1.1" width="350px" height="407px" viewBox="-0.5 -0.5 350 407"><defs/><g><path d="M 55 195 L 166.68 269.45 Q 175 275 183.32 269.45 L 295 195" fill="none" stroke="none" pointer-events="stroke"/><path d="M 54.42 194.25 M 54.19 196.69 C 95.97 220.2 139.75 250.04 168.06 268.25 M 55.21 194.28 C 92.45 220.08 129.38 243.21 166.36 269.22 M 166.68 269.45 C 171.34 272.88 178.36 272.28 183.84 271.32 M 167.48 271.03 C 171.75 273.94 180.07 273.09 184.61 268.33 M 182.15 270.75 C 222.24 241.9 261.01 215.82 293.01 195.1 M 184.29 269.03 C 212.05 249.98 239.83 230.08 294.87 194.15" fill="none" stroke="#000000" stroke-width="10" stroke-linejoin="round" stroke-linecap="round" stroke-miterlimit="10" pointer-events="stroke"/><path d="M 175 398 L 175 275" fill="none" stroke="none" pointer-events="stroke"/><path d="M 174.42 398.61 M 176.91 396.34 C 175.65 366.41 172.93 333.88 174.09 275.97 M 174.96 398.53 C 175.76 361.01 175.42 324.81 175.38 274.93" fill="none" stroke="#000000" stroke-width="10" stroke-linejoin="round" stroke-linecap="round" stroke-miterlimit="10" pointer-events="stroke"/><path d="M 85 175 L 166.68 120.55 Q 175 115 183.32 120.55 L 265 175" fill="none" stroke="none" pointer-events="stroke"/><path d="M 86.94 176.83 M 83.9 173.61 C 112.59 154.67 142.24 135.54 166.77 120.46 M 85.35 175.36 C 112.08 158.54 136.96 141.05 167.46 120.45 M 166.68 120.55 C 173.16 115.55 177.47 115.36 182.13 119.38 M 165.34 119.07 C 170.55 114.79 177.37 114.98 182.42 118.48 M 181.79 121.48 C 213.32 141.95 244.32 160.54 264.03 175.46 M 183.09 121.47 C 204.85 134.99 224.79 149.32 265.77 175.51" fill="none" stroke="#000000" stroke-width="10" stroke-linejoin="round" stroke-linecap="round" stroke-miterlimit="10" pointer-events="stroke"/><path d="M 295 281 L 295 311 Q 295 321 286.68 326.55 L 183.32 395.45 Q 175 401 166.68 395.45 L 63.32 326.55 Q 55 321 55 311 L 55 281" fill="none" stroke="none" pointer-events="stroke"/><path d="M 296.94 279.17 M 295.58 282.77 C 295.87 287.97 296.57 298.26 295.52 312.45 M 294.79 281.18 C 295.01 289.07 295.09 297.39 295.95 311.44 M 295 311 C 296.18 319.47 291.15 321.15 287.94 324.92 M 294.02 312.91 C 296.35 316.54 290.21 321.44 287.08 326.05 M 287.2 326.29 C 255.18 348.91 225.71 367.27 181.4 393.7 M 287.09 327.39 C 263.98 341.12 242.34 355.26 184.14 394.81 M 183.32 395.45 C 176.12 399.63 171.55 398.1 164.75 394.68 M 181.56 394.37 C 179.25 400.48 171.65 397.41 166.46 393.63 M 164.74 396.53 C 134.14 376.52 105 354.59 62.41 325.82 M 166 395.07 C 128.36 369.77 89.52 343.33 62.93 327.45 M 63.32 326.55 C 56.66 322.89 54.23 316.93 54.12 311.07 M 61.66 326.55 C 59.81 322.93 54.67 316.28 53.89 309.99 M 56.45 310.64 C 56.27 301.97 55.36 292.33 55.23 279.71 M 55.98 311.82 C 56.05 301.89 55.08 290.49 54.69 280.06" fill="none" stroke="#000000" stroke-width="10" stroke-linejoin="round" stroke-linecap="round" stroke-miterlimit="10" pointer-events="stroke"/><path d="M 265 175 L 284.73 188.38 Q 293 194 298.45 202.38 L 328.55 248.62 Q 334 257 325.68 262.55 L 222.32 331.45 Q 214 337 208.45 328.68 L 174 277" fill="none" stroke="none" pointer-events="stroke"/><path d="M 266.94 173.51 M 263.26 175.94 C 270.92 179.21 279.12 184.71 285.68 187.37 M 264.23 174.99 C 268.18 177.08 273.67 180.78 283.86 189.36 M 284.73 188.38 C 291.68 193.03 292.97 194.88 298.17 204.28 M 284.11 189.68 C 290.01 191.95 295.78 195.84 300.15 203.46 M 297.02 200.93 C 306.45 210.29 313.53 222.18 329.69 248.65 M 297.49 203.14 C 309.12 218.78 320.55 236.44 329.43 248.84 M 328.55 248.62 C 334.12 252.67 330.42 259.89 325.57 264.3 M 328.52 246.99 C 331.04 254.69 331.19 258.87 327.62 262.2 M 327.01 262.86 C 303.63 277.05 283.23 291.72 222.1 332.18 M 325.2 262.88 C 286.05 288.82 247.79 314.64 221.4 332.12 M 222.32 331.45 C 215.64 333.69 212.43 333.55 208.06 326.99 M 221.78 329.58 C 215.06 335.05 210.94 333.84 207.73 326.95 M 208.18 330.67 C 201.55 318.18 193.81 304.33 172.43 275.04 M 207.82 327.83 C 195.65 310.11 182.11 290.21 174.49 276.93" fill="none" stroke="#000000" stroke-width="10" stroke-linejoin="round" stroke-linecap="round" stroke-miterlimit="10" pointer-events="stroke"/><path d="M 85 175 L 65.27 188.38 Q 57 194 52.69 203.02 L 29.31 251.98 Q 25 261 33.44 266.37 L 126.56 325.63 Q 135 331 140.55 322.68 L 175 271" fill="none" stroke="none" pointer-events="stroke"/><path d="M 86.94 174.19 M 86.62 174.26 C 81.59 177.65 76.99 181.27 67.07 186.46 M 85.11 174.62 C 78.34 178.64 72.65 182.51 64.75 188.44 M 65.27 188.38 C 61.69 191.22 56.18 198.67 53.32 204 M 65.37 188.46 C 60.97 193.83 53.3 196.98 52.39 202.64 M 51.37 203.2 C 45.53 214.54 39.54 228.72 28.55 251.59 M 52.99 203.61 C 46.54 215.36 40.62 229.97 30.3 251.91 M 29.31 251.98 C 27.56 256.43 26.77 263.99 32.98 265.18 M 28.76 253.26 C 24.64 256.77 28.86 261.72 35.09 264.36 M 33.32 265.14 C 55.1 281.37 75.43 295.15 127.73 325.28 M 33.36 266.12 C 52.54 279.97 71.9 291.85 126.56 325.83 M 126.56 325.63 C 131 328.77 135.23 327.68 141.14 321.46 M 128.25 324.03 C 132.18 328.74 138.48 329.85 140.62 324.12 M 140.83 321.36 C 149.88 307.86 162.15 291.9 173.83 271.7 M 140.69 322.49 C 150.58 309.95 159.51 295.7 175.08 270.66" fill="none" stroke="#000000" stroke-width="10" stroke-linejoin="round" stroke-linecap="round" stroke-miterlimit="10" pointer-events="stroke"/><path d="M 265 110 Q 215 118 215 193.82" fill="none" stroke="none" pointer-events="stroke"/><path d="M 215 223.82 L 200 193.82 L 230 193.82 Z" fill="none" stroke="none" pointer-events="all"/><path d="M 266.94 109.87 M 265 110 C 232.77 116.32 216.59 143.25 214.47 192.7 M 265.16 109.51 C 233.01 117.15 214.86 142.27 216.05 192.27" fill="none" stroke="#333333" stroke-width="10" stroke-linejoin="round" stroke-linecap="round" stroke-miterlimit="10" pointer-events="stroke"/><path d="M 200.09 193.71 C 200.09 193.71 200.09 193.71 200.09 193.71 M 200.09 193.71 C 200.09 193.71 200.09 193.71 200.09 193.71" fill="none" stroke="#333333" stroke-width="5" stroke-linejoin="round" stroke-linecap="round" stroke-miterlimit="10" pointer-events="all"/><path d="M 214.66 222.08 M 216.3 222.9 C 210.58 213.21 202.54 203.07 198.41 192.14 M 215.13 224.52 C 211.03 215.6 208.35 208.65 199.68 193.86 M 201.43 195.13 C 210.48 193.07 218.56 192.56 231.19 193.02 M 199.6 193.75 C 211.47 193.13 222 194.61 229.46 193.91 M 231.46 195.67 C 222.86 203.57 217.62 215.28 213.43 225.05 M 229.17 193.1 C 223.68 204.8 219.14 216.34 215.32 222.99" fill="none" stroke="#333333" stroke-width="10" stroke-linejoin="round" stroke-linecap="round" stroke-miterlimit="10" pointer-events="all"/><path d="M 175 75 Q 175 75 175 156.82" fill="none" stroke="none" pointer-events="stroke"/><path d="M 175 186.82 L 160 156.82 L 190 156.82 Z" fill="none" stroke="none" pointer-events="all"/><path d="M 176.94 75.21 M 175 75 C 175.07 73.66 175.75 103.69 176.87 158.56 M 175.43 75.72 C 173.52 75.51 175.67 104.18 174.2 155.77" fill="none" stroke="#333333" stroke-width="10" stroke-linejoin="round" stroke-linecap="round" stroke-miterlimit="10" pointer-events="stroke"/><path d="M 160.3 156.47 C 160.3 156.47 160.3 156.47 160.3 156.47 M 160.3 156.47 C 160.3 156.47 160.3 156.47 160.3 156.47" fill="none" stroke="#333333" stroke-width="5" stroke-linejoin="round" stroke-linecap="round" stroke-miterlimit="10" pointer-events="all"/><path d="M 175.01 186.16 M 175.39 185.13 C 171.6 178.9 164.32 167.85 159.78 157.77 M 174.38 187.66 C 170.29 178.43 166.14 168.58 159.84 156.12 M 160.46 155.93 C 170.77 157.07 178.33 156.88 190.71 157.55 M 160.51 156.02 C 168.61 156.86 176.62 156.4 190.33 156.63 M 190.72 155.15 C 185.57 165.39 182.99 172.53 176.71 187.28 M 189.4 156.44 C 186.68 162.89 183.36 171.29 175.52 186.7" fill="none" stroke="#333333" stroke-width="10" stroke-linejoin="round" stroke-linecap="round" stroke-miterlimit="10" pointer-events="all"/><path d="M 85 110 Q 135 128 135 193.82" fill="none" stroke="none" pointer-events="stroke"/><path d="M 135 223.82 L 120 193.82 L 150 193.82 Z" fill="none" stroke="none" pointer-events="all"/><path d="M 86.94 109.53 M 85 110 C 116.47 121.3 133.43 148.48 136.06 193.85 M 84.89 108.3 C 117.9 120.52 134.05 150.63 133.29 191.78" fill="none" stroke="#333333" stroke-width="10" stroke-linejoin="round" stroke-linecap="round" stroke-miterlimit="10" pointer-events="stroke"/><path d="M 119.76 194.1 C 119.76 194.1 119.76 194.1 119.76 194.1 M 119.76 194.1 C 119.76 194.1 119.76 194.1 119.76 194.1" fill="none" stroke="#333333" stroke-width="5" stroke-linejoin="round" stroke-linecap="round" stroke-miterlimit="10" pointer-events="all"/><path d="M 134.31 225.01 M 133.2 223.67 C 132.57 216.51 126.76 209.29 121.04 193.51 M 135.89 224.38 C 131.16 217.77 127.96 211.72 119.52 194.6 M 118.4 193.32 C 130.2 195.48 138.78 194.63 151.67 195.5 M 120.68 194.49 C 128.33 193.79 135.37 193.23 150.59 194.18 M 148.2 195.2 C 146.55 202.45 141.65 208.73 134.16 225.82 M 150.95 194.75 C 145.07 203.72 138.31 214.39 135.12 224.28" fill="none" stroke="#333333" stroke-width="10" stroke-linejoin="round" stroke-linecap="round" stroke-miterlimit="10" pointer-events="all"/><path d="M 134.42 19.59 L 135.66 16.7 L 142.57 12.49 L 153.49 8.08 L 165.69 3.8 L 189.57 7.99 L 208.51 11.03 L 216.07 16.07 L 214.29 18.19 L 213.17 63.49 L 201.58 69.54 L 182.77 75.32 L 158.4 75.23 L 141.19 67.22 L 135.63 61.94 L 136.16 60.97 L 133.25 20.39" fill="#ffffff" stroke="none" pointer-events="all"/><path d="M 133.21 21.51 M 135 20 C 134.55 13.22 152.98 5.88 175.59 5.35 M 135.11 18.6 C 133.53 12.95 155.08 2.84 173.65 6.97 M 175 5 C 196.3 4 215.99 11.76 215.13 21.73 M 174.65 5.83 C 198.19 6.95 214.05 12.05 214.83 20.02 M 215.06 21.75 C 215.65 32.21 216.01 42.49 216.16 61.17 M 214.56 19.77 C 216.15 35.84 214.57 51.63 214.9 59.83 M 215 60 C 215.6 70.05 195.76 74.41 174.01 76.76 M 215.97 60.89 C 215.94 67.66 197.07 73.44 173.99 74.67 M 175 75 C 153.68 73.75 136.17 66.85 135.97 61.48 M 173.93 74.2 C 152.67 77 133.97 66.35 132.74 59.9 M 135.18 58.51 C 135.9 49.38 134.32 42.15 135.27 20.6 M 134.02 60.11 C 135.1 48.74 134.16 37.8 135.4 20.76" fill="none" stroke="#000000" stroke-width="10" stroke-linejoin="round" stroke-linecap="round" stroke-miterlimit="10" pointer-events="all"/><path d="M 214.42 19.59 M 215 20 C 215.74 29.15 197.95 35.52 174.85 34.72 M 213.76 18.5 C 215.39 27.61 199.25 33.96 173.85 37.08 M 175 35 C 151.89 35.47 133.3 27.22 134.29 18.19 M 174.71 35.62 C 152.17 33.66 134.79 27.04 133.82 21.62" fill="none" stroke="#000000" stroke-width="10" stroke-linejoin="round" stroke-linecap="round" stroke-miterlimit="10" pointer-events="all"/><path d="M 264.42 90.27 L 266.47 88.42 L 270.5 81.85 L 281.82 76.96 L 296.23 76.21 L 320.36 74.84 L 337.6 82.76 L 343.47 87.13 L 346.05 91.44 L 343.52 134.47 L 333.26 142.56 L 313.47 143.47 L 289.32 144.3 L 271.69 139.42 L 264.09 131.52 L 266.87 129.75 L 265.51 89.13" fill="#ffffff" stroke="none" pointer-events="all"/><path d="M 264.47 89.14 M 265 90 C 265.52 79.78 284.04 75.99 306.78 76.15 M 266.74 90.01 C 263.48 80.77 284.59 75.21 304.37 73.57 M 305 75 C 328.83 73.67 345.18 80.8 344.75 88.37 M 303.7 76.29 C 327.78 73.57 343.12 82.01 345.09 89.36 M 343.96 91.5 C 344.25 101.16 344.57 112.45 345.22 131.53 M 345.79 90.42 C 344.1 100.2 344.54 111.06 344.36 130.03 M 345 130 C 346.4 138.89 327.85 144.03 305.77 146.71 M 346.47 131.36 C 347.07 138.21 327.01 144.6 306.12 143.6 M 305 145 C 281.92 144.02 266.85 139.6 264.08 131.61 M 305.42 143.88 C 284.3 144.9 266.45 136.98 265.58 131.91 M 265.86 129.42 C 266.55 120.65 266.3 107.97 263.56 88.14 M 265.25 129.69 C 265.25 115.83 265.09 101.03 264.33 89.41" fill="none" stroke="#000000" stroke-width="10" stroke-linejoin="round" stroke-linecap="round" stroke-miterlimit="10" pointer-events="all"/><path d="M 344.42 90.27 M 345 90 C 343.67 98.51 326.27 104.4 305.66 106.44 M 344.29 90.91 C 344.34 99.6 326.27 105.17 304.76 103.46 M 305 105 C 282.24 106.45 264.98 100.23 266.05 91.44 M 305.41 103.78 C 282.75 106.19 263.02 96.55 264.87 90.55" fill="none" stroke="#000000" stroke-width="10" stroke-linejoin="round" stroke-linecap="round" stroke-miterlimit="10" pointer-events="all"/><path d="M 4.42 89.93 L 4.07 85.56 L 11.54 80.17 L 22.65 79.52 L 35.96 75.01 L 61.96 74.41 L 80.05 79.9 L 82.77 88.6 L 83.17 91.81 L 85.34 131.98 L 72.42 139.05 L 53.12 146.4 L 30.86 144.76 L 11.44 140.32 L 4.86 131.73 L 6.52 130.36 L 4.38 91.76" fill="#ffffff" stroke="none" pointer-events="all"/><path d="M 5.84 88.32 M 5 90 C 3.04 83.5 23.51 73.94 44.19 75.75 M 3.93 91.31 C 3.51 81.86 22.54 76.32 44.01 75.27 M 45 75 C 67.56 73.83 83.59 81.28 86.94 88.05 M 46.17 74.06 C 65.69 75.26 83.59 79.73 84.96 91.99 M 84.51 89.63 C 83.35 99.68 85.69 112.47 83.69 129.35 M 84.17 90.09 C 84.73 103.02 84.16 116.34 85.63 129.93 M 85 130 C 86 137.47 68.8 144.22 46.89 146.74 M 84.22 131.13 C 86.5 140.23 67.04 146.32 42.75 144.13 M 45 145 C 24.8 145.89 6.51 140.22 3.03 131.55 M 44.67 144.04 C 21.19 145.95 5.21 138.97 6.46 130.9 M 5.52 128.96 C 4.23 118.01 5.31 104.06 6.41 91.37 M 5.64 130.9 C 4.17 116.28 4.62 103.41 5.86 89.09" fill="none" stroke="#000000" stroke-width="10" stroke-linejoin="round" stroke-linecap="round" stroke-miterlimit="10" pointer-events="all"/><path d="M 84.42 89.93 M 85 90 C 84.71 96.83 67.11 106.96 43.25 103.58 M 84.03 89.7 C 87.17 96.3 65.46 106.87 46.6 102.97 M 45 105 C 24.06 103.96 4.14 96.72 3.17 91.81 M 45.06 106.7 C 22.46 107.22 3.9 96.8 6.64 91.09" fill="none" stroke="#000000" stroke-width="10" stroke-linejoin="round" stroke-linecap="round" stroke-miterlimit="10" pointer-events="all"/></g></svg>